<?xml version="1.0" standalone="no"?>
<!DOCTYPE svg PUBLIC "-//W3C//DTD SVG 20010904//EN"
 "http://www.w3.org/TR/2001/REC-SVG-20010904/DTD/svg10.dtd">
<svg version="1.0" xmlns="http://www.w3.org/2000/svg"
 width="64.000000pt" height="64.000000pt" viewBox="0 0 64.000000 64.000000"
 preserveAspectRatio="xMidYMid meet">

<g transform="translate(0.000000,64.000000) scale(0.100000,-0.100000)"
fill="#000000" stroke="none">
<path d="M292 458 c-5 -7 -18 -39 -28 -70 l-17 -57 -66 -6 c-82 -8 -90 -10
-98 -31 -6 -17 12 -38 81 -92 l29 -22 -17 -61 c-16 -59 -15 -83 3 -63 16 17
43 113 37 131 -4 10 -29 34 -56 53 -69 49 -65 60 20 60 78 0 86 6 110 85 13
43 26 62 36 53 3 -4 15 -35 27 -70 l22 -63 70 -3 c39 -2 74 -7 79 -12 5 -5
-16 -27 -48 -52 -31 -23 -56 -49 -56 -57 0 -8 7 -41 16 -73 9 -32 14 -61 11
-65 -3 -3 -29 11 -57 31 -27 20 -59 36 -71 36 -25 0 -129 -71 -125 -85 4 -16
338 -13 344 3 2 8 -7 12 -25 12 -28 0 -30 4 -47 71 l-19 70 24 17 c13 9 40 31
59 49 49 45 35 65 -50 75 -35 4 -69 9 -76 12 -6 2 -20 27 -29 55 -24 73 -57
100 -83 69z m68 -398 l25 -20 -65 0 -65 0 25 20 c14 11 32 20 40 20 8 0 26 -9
40 -20z"/>
<path d="M596 31 c-4 -5 -2 -12 3 -15 5 -4 12 -2 15 3 4 5 2 12 -3 15 -5 4
-12 2 -15 -3z"/>
</g>
</svg>
